<svg width="24" height="24" viewBox="0 0 24 24" fill="none" xmlns="http://www.w3.org/2000/svg">
<mask id="mask0_216_3993" style="mask-type:alpha" maskUnits="userSpaceOnUse" x="0" y="0" width="24" height="23">
<path d="M12 8.85675C9.9675 8.85675 8.25 10.5743 8.25 12.6068C8.25 14.6393 9.9675 16.3568 12 16.3568C14.0325 16.3568 15.75 14.6393 15.75 12.6068C15.75 10.5743 14.0325 8.85675 12 8.85675Z" fill="#006FFD"/>
<path d="M21.6 4.20675H18.4968L15.2484 0.958352C15.1372 0.846701 15.0049 0.758155 14.8593 0.697813C14.7137 0.637471 14.5576 0.606523 14.4 0.606752H9.6C9.44239 0.606523 9.28629 0.637471 9.14068 0.697813C8.99508 0.758155 8.86285 0.846701 8.7516 0.958352L5.5032 4.20675H2.4C1.0764 4.20675 0 5.28315 0 6.60675V19.8068C0 21.1304 1.0764 22.2068 2.4 22.2068H21.6C22.9236 22.2068 24 21.1304 24 19.8068V6.60675C24 5.28315 22.9236 4.20675 21.6 4.20675ZM12 18.6068C8.748 18.6068 6 15.8588 6 12.6068C6 9.35475 8.748 6.60675 12 6.60675C15.252 6.60675 18 9.35475 18 12.6068C18 15.8588 15.252 18.6068 12 18.6068Z" fill="#006FFD"/>
</mask>
<g mask="url(#mask0_216_3993)">
<rect width="24" height="24" fill="#006FFD"/>
</g>
</svg>
