<svg width="24" height="24" viewBox="0 0 24 24" fill="none" xmlns="http://www.w3.org/2000/svg">
<mask id="mask0_269_8083" style="mask-type:alpha" maskUnits="userSpaceOnUse" x="1" y="1" width="22" height="22">
<path d="M11.9996 1C18.0742 1 22.9983 5.9241 22.9983 11.9987C22.9983 18.0732 18.0742 22.9973 11.9996 22.9973C10.2203 22.9997 8.46719 22.5686 6.89187 21.7413L2.17344 22.9698C2.01578 23.0109 1.85013 23.01 1.6929 22.9674C1.53567 22.9247 1.39233 22.8416 1.27707 22.7265C1.16181 22.6114 1.07865 22.4681 1.03582 22.3109C0.992984 22.1537 0.991973 21.9881 1.03288 21.8304L2.26033 17.113C1.43081 15.536 0.998535 13.7805 1.00099 11.9987C1.00099 5.9241 5.92509 1 11.9996 1Z" fill="#006FFD"/>
</mask>
<g mask="url(#mask0_269_8083)">
<rect width="24" height="24" fill="#006FFD"/>
</g>
</svg>
