<svg width="24" height="24" viewBox="0 0 24 24" fill="none" xmlns="http://www.w3.org/2000/svg">
<g clip-path="url(#clip0_11_210)">
<mask id="mask0_11_210" style="mask-type:alpha" maskUnits="userSpaceOnUse" x="0" y="2" width="25" height="21">
<path d="M8.59766 8.71638C8.59766 10.0971 7.52314 11.2164 6.19766 11.2164C4.87218 11.2164 3.79766 10.0971 3.79766 8.71638C3.79766 7.33567 4.87218 6.21638 6.19766 6.21638C7.52314 6.21638 8.59766 7.33567 8.59766 8.71638Z" fill="#006FFD"/>
<path fill-rule="evenodd" clip-rule="evenodd" d="M0.000976562 4.50027C0.000976562 3.11956 1.07549 2.00027 2.40098 2.00027H21.601C22.9265 2.00027 24.001 3.11956 24.001 4.50027V19.5002C24.001 20.881 22.9265 22.0002 21.601 22.0002H20.0168C20.0115 22.0003 20.0062 22.0003 20.001 22.0003H2.94795C2.94343 22.0003 2.93892 22.0003 2.9344 22.0002H2.40098C1.07549 22.0002 0.000976562 20.881 0.000976562 19.5002V4.50027ZM2.40098 3.87527H21.601C21.9323 3.87527 22.201 4.15509 22.201 4.50027V12.2904L16.9866 7.0003L8.11558 16.0003L5.5024 13.3491L1.80098 17.1043V4.50027C1.80098 4.15509 2.06961 3.87527 2.40098 3.87527Z" fill="#006FFD"/>
</mask>
<g mask="url(#mask0_11_210)">
<rect x="0.000976562" y="-0.000549316" width="24" height="24" fill="#006FFD"/>
</g>
</g>
<defs>
<clipPath id="clip0_11_210">
<rect width="24.0009" height="24.0006" fill="white"/>
</clipPath>
</defs>
</svg>
