<svg width="24" height="24" viewBox="0 0 24 24" fill="none" xmlns="http://www.w3.org/2000/svg">
<mask id="mask0_213_3659" style="mask-type:alpha" maskUnits="userSpaceOnUse" x="0" y="1" width="23" height="23">
<path d="M0.823462 8.4396C0.690283 8.48398 0.572231 8.56484 0.482734 8.67299C0.393238 8.78114 0.33589 8.91223 0.317214 9.05136C0.298538 9.19049 0.319284 9.33207 0.377092 9.45999C0.4349 9.58792 0.527448 9.69705 0.644211 9.77497L7.27652 13.4311C7.40013 13.4992 7.54046 13.531 7.68136 13.523C7.82227 13.5149 7.95804 13.4672 8.07307 13.3855L15.119 8.36111C15.4595 8.13307 15.8668 8.54036 15.6388 8.88084L10.6144 15.9268C10.5326 16.0418 10.485 16.1776 10.4769 16.3185C10.4688 16.4594 10.5007 16.5997 10.5688 16.7234L14.2249 23.3557C14.3028 23.4724 14.412 23.565 14.5399 23.6228C14.6678 23.6806 14.8094 23.7013 14.9485 23.6827C15.0876 23.664 15.2187 23.6066 15.3269 23.5171C15.435 23.4276 15.5159 23.3096 15.5603 23.1764L22.4546 2.49354C22.4984 2.36148 22.5047 2.21981 22.4727 2.08439C22.4406 1.94896 22.3716 1.82512 22.2732 1.72672C22.1748 1.62832 22.0509 1.55923 21.9155 1.5272C21.7801 1.49516 21.6384 1.50143 21.5063 1.54531L0.823462 8.4396Z" fill="#006FFD"/>
</mask>
<g mask="url(#mask0_213_3659)">
<rect width="24" height="24" fill="#006FFD"/>
</g>
</svg>
